<svg width="21" height="21" viewBox="0 0 21 21" fill="none" xmlns="http://www.w3.org/2000/svg">
<path d="M10 8H12V5H15V3H12V0H10V3H7V5H10V8ZM6 17C5.46957 17 4.96086 17.2107 4.58579 17.5858C4.21071 17.9609 4 18.4696 4 19C4 19.5304 4.21071 20.0391 4.58579 20.4142C4.96086 20.7893 5.46957 21 6 21C6.53043 21 7.03914 20.7893 7.41421 20.4142C7.78929 20.0391 8 19.5304 8 19C8 18.4696 7.78929 17.9609 7.41421 17.5858C7.03914 17.2107 6.53043 17 6 17ZM16 17C15.4696 17 14.9609 17.2107 14.5858 17.5858C14.2107 17.9609 14 18.4696 14 19C14 19.5304 14.2107 20.0391 14.5858 20.4142C14.9609 20.7893 15.4696 21 16 21C16.5304 21 17.0391 20.7893 17.4142 20.4142C17.7893 20.0391 18 19.5304 18 19C18 18.4696 17.7893 17.9609 17.4142 17.5858C17.0391 17.2107 16.5304 17 16 17ZM6.17 13.75L6.2 13.63L7.1 12H14.55C15.3 12 15.96 11.59 16.3 10.97L20.16 3.96L18.42 3H18.41L17.31 5L14.55 10H7.53L7.4 9.73L5.16 5L4.21 3L3.27 1H0V3H2L5.6 10.59L4.25 13.04C4.09 13.32 4 13.65 4 14C4 14.5304 4.21071 15.0391 4.58579 15.4142C4.96086 15.7893 5.46957 16 6 16H18V14H6.42C6.29 14 6.17 13.89 6.17 13.75Z" fill="black"/>
</svg>
