<svg width="21" height="21" viewBox="0 0 21 21" fill="none" xmlns="http://www.w3.org/2000/svg">
<path d="M17.0711 2.93111C15.2211 1.00111 12.6611 -0.0388877 10.0011 0.00111232C7.34111 -0.0388877 4.79111 1.00111 2.94111 2.93111C1.00111 4.78111 -0.0388877 7.34111 0.00111232 10.0011C-0.0388877 12.6611 1.00111 15.2111 2.93111 17.0611C4.78111 19.0011 7.34111 20.0411 10.0011 20.0011C12.6611 20.0411 15.2111 19.0011 17.0611 17.0711C19.0011 15.2211 20.0411 12.6611 20.0011 10.0011C20.0411 7.34111 19.0011 4.78111 17.0711 2.93111ZM15.0011 10.0011V16.0011H11.5011V11.0011H8.50111V16.0011H5.00111V10.0011H3.00111L10.0011 3.00111L17.5011 10.0011H15.0011Z" fill="black"/>
</svg>
